<svg width="164" height="20" viewBox="0 0 164 20" fill="none" xmlns="http://www.w3.org/2000/svg">
<g id="Logo">
<g id="g5260">
<g id="g4304">
<g id="g20">
<path id="path22" d="M0.913574 5.15026L3.29713 6.68702C3.29713 6.68702 5.36305 3.01685 8.81736 1.6695C13.3311 -0.0909815 16.0631 1.14026 16.0631 1.14026L14.6203 5.21745C14.6203 5.21745 12.0548 4.71054 10.1379 5.93183C8.22105 7.15292 7.3871 9.43675 7.3871 9.43675L10.2537 11.1538L2.29798 13.4839L0.913574 5.15026Z" fill="#286A99"/>
</g>
<g id="g24">
<path id="path26" d="M18.7981 14.8492L16.4141 13.3128C16.4141 13.3128 14.3486 16.9828 10.8941 18.3304C6.38052 20.0904 3.64856 18.8592 3.64856 18.8592L5.09117 14.7826C5.09117 14.7826 7.65646 15.2893 9.57352 14.0676C11.4906 12.8469 12.3245 10.5631 12.3245 10.5631L9.45815 8.84607L17.4139 6.51555L18.7981 14.8492Z" fill="#3FAC4F"/>
</g>
</g>
</g>
<g id="g4278">
<g id="g28">
<path id="path30" d="M37.3502 15.2124C35.072 15.2124 33.7934 14.2823 33.1737 13.6815C31.9749 12.5191 31.615 10.911 31.615 8.62448C31.615 6.78418 31.7547 4.71078 33.1135 3.29626C33.833 2.5409 35.1915 1.64949 37.4101 1.64949H42.7658V2.57932H37.8698C36.8307 2.57932 34.9722 2.69573 33.813 4.14895C32.854 5.35002 32.7739 7.13282 32.7739 8.64383C32.7739 9.7097 32.7739 11.3952 33.693 12.6352C34.8724 14.2242 36.9105 14.2823 37.5701 14.2823H42.9854V15.2124H37.3502Z" fill="#001E4A"/>
</g>
<g id="g32">
<path id="path34" d="M47.0156 10.3296H54.2896L51.2321 3.23791C51.1123 2.96696 50.9324 2.4632 50.6529 2.4632C50.3732 2.4632 50.1929 2.96696 50.0732 3.23791L47.0156 10.3296ZM49.0936 2.92797C49.4136 2.19168 49.8134 1.49438 50.6529 1.49438C51.4919 1.49438 51.8917 2.21132 52.2113 2.92797L57.567 15.2124H56.4081L54.7094 11.2597H46.5959L44.8971 15.2124H43.7385L49.0936 2.92797Z" fill="#001E4A"/>
</g>
<g id="g36">
<path id="path38" d="M59.2894 13.4296C59.2894 13.8169 59.3293 14.0301 59.4294 14.1272C59.5891 14.2823 59.9487 14.2823 60.0685 14.2823H65.0845C66.0238 14.2823 67.5626 14.0691 68.4421 12.4801C69.0015 11.4535 69.2014 10.039 69.2014 8.12071C69.2014 6.66749 69.1013 5.21426 68.1224 4.03226C67.343 3.0828 66.1439 2.57932 64.8247 2.57932H60.1087C59.9487 2.57932 59.7288 2.57932 59.5495 2.7148C59.4094 2.8312 59.2894 3.04438 59.2894 3.31561V13.4296ZM60.1688 15.2124C59.6889 15.2124 59.1097 15.1927 58.7099 14.8828C58.2699 14.5535 58.2103 14.1272 58.2103 13.7202V3.58685C58.2103 3.14114 58.2303 2.61803 58.69 2.15297C59.1097 1.72691 59.629 1.64921 60.0089 1.64921H64.7648C65.5043 1.64921 67.2829 1.74626 68.7817 3.21856C70.3002 4.71078 70.3604 6.66749 70.3604 8.19813C70.3604 9.78683 70.2406 12.0153 68.9613 13.5847C68.2422 14.4758 67.043 15.2124 65.1247 15.2124H60.1688Z" fill="#001E4A"/>
</g>
<g id="g40">
<path id="path42" d="M79.3115 15.2123C78.8318 15.2123 78.292 15.2316 77.8526 14.8053C77.4328 14.3985 77.4128 13.8364 77.4128 13.3327V3.45124C77.4128 2.6566 77.7128 2.26896 77.8129 2.15312C78.2122 1.68778 78.732 1.64936 79.2713 1.64936H87.5248V2.57919H79.4312C79.2114 2.57919 78.8521 2.6566 78.7121 2.77301C78.4919 2.94747 78.4919 3.31548 78.4919 3.45124V7.81064H87.3252V8.74075H78.4919V13.5652C78.4919 13.7203 78.5521 13.9916 78.6921 14.1077C78.8318 14.2241 79.3514 14.2821 79.5912 14.2821H87.6044V15.2123H79.3115Z" fill="#001E4A"/>
</g>
<g id="g44">
<path id="path46" d="M95.9367 15.2124L92.6998 10.6979L89.462 15.2124H88.203L92.1394 9.94194L88.3832 4.94331H89.6014L92.6998 9.18658L95.7967 4.94331H97.0157L93.2787 9.94194L97.1957 15.2124H95.9367Z" fill="#001E4A"/>
</g>
<g id="g48">
<path id="path50" d="M101.672 15.2124C100.173 15.2124 99.1736 14.6309 98.5539 13.914C97.715 12.9455 97.5952 11.7248 97.5952 10.2135C97.5952 8.81858 97.6751 7.19089 98.794 6.08631C99.414 5.48578 100.433 4.94331 102.091 4.94331H105.668V5.85378H101.971C100.273 5.85378 99.2338 6.72583 98.9138 7.94653C98.7741 8.50835 98.7139 9.84546 98.7139 10.3492C98.7139 11.0269 98.8143 12.1895 99.0738 12.7707C99.6938 14.1272 101.233 14.3016 102.191 14.3016H105.909V15.2124H101.672Z" fill="#001E4A"/>
</g>
<g id="g52">
<path id="path54" d="M107.505 1.64949H108.544V4.94331H112.42C113.48 4.94331 114.279 5.13713 114.879 5.6796C115.639 6.37718 115.798 7.36535 115.798 8.39223V15.2124H114.759V8.27583C114.759 7.83012 114.719 7.01642 114.239 6.47395C113.74 5.91241 113.1 5.85378 112.521 5.85378H108.544V15.2124H107.505V1.64949Z" fill="#001E4A"/>
</g>
<g id="g56">
<path id="path58" d="M120.013 9.98094C119.394 9.98094 119.015 10.2715 118.855 10.4847C118.595 10.814 118.515 11.3565 118.515 12.0734C118.515 12.6936 118.575 13.4296 118.935 13.8559C119.155 14.1078 119.534 14.3016 119.974 14.3016H124.25C124.37 14.3016 124.57 14.3016 124.71 14.1852C124.85 14.0691 124.85 13.972 124.85 13.8366V9.98094H120.013ZM123.391 4.94331C124.11 4.94331 124.829 5.21426 125.25 5.65996C125.809 6.24142 125.889 7.09383 125.889 7.714V13.8559C125.889 14.1272 125.869 14.6116 125.529 14.9215C125.209 15.2124 124.69 15.2124 124.331 15.2124H120.254C119.654 15.2124 118.915 15.1927 118.335 14.747C117.456 14.0497 117.396 12.6549 117.396 12.0347C117.396 11.2016 117.515 10.2325 118.275 9.61293C118.855 9.14759 119.654 9.07018 120.254 9.07018H124.85V7.53954C124.85 7.21024 124.71 6.62906 124.45 6.31883C124.23 6.06695 123.831 5.85378 123.331 5.85378H118.195V4.94331H123.391Z" fill="#001E4A"/>
</g>
<g id="g60">
<path id="path62" d="M127.887 6.28013C127.887 6.00889 127.907 5.60218 128.127 5.33066C128.407 4.98201 128.847 4.94331 129.166 4.94331H132.963C133.962 4.94331 134.781 5.07907 135.421 5.69895C135.741 6.00889 136.241 6.66777 136.241 8.08229V15.2124H135.201V8.33389C135.201 7.46212 135.101 6.93872 134.742 6.49359C134.302 5.95083 133.702 5.85378 133.023 5.85378H129.266C129.166 5.85378 129.046 5.85378 128.986 5.93148C128.926 6.00889 128.926 6.16401 128.926 6.24142V15.2124H127.887V6.28013Z" fill="#001E4A"/>
</g>
<g id="g64">
<path id="path66" d="M146.01 6.68701C146.01 6.39642 145.97 6.18324 145.71 6.00877C145.49 5.8733 145.271 5.85366 145.071 5.85366H141.794C140.794 5.85366 140.175 6.22195 139.835 6.5706C139.016 7.40394 138.956 8.91523 138.956 10.0195C138.956 12.6935 139.595 13.4491 139.755 13.6429C140.375 14.3402 141.274 14.3015 141.854 14.3015H146.01V6.68701ZM141.914 15.2123C140.754 15.2123 139.516 15.1349 138.676 13.8754C137.997 12.8483 137.837 11.4147 137.837 9.8257C137.837 8.21765 138.017 6.97759 139.016 5.98942C139.895 5.11737 140.855 4.94319 142.173 4.94319H144.811C145.371 4.94319 145.97 4.9819 146.43 5.31148C146.97 5.69855 147.05 6.29936 147.05 6.74507V14.0303C147.05 15.2897 146.909 16.5491 146.19 17.3631C145.251 18.4093 143.492 18.5058 142.833 18.5058H138.596V17.5953H142.833C143.233 17.5953 144.492 17.5763 145.211 16.9561C145.71 16.5297 145.97 15.7934 146.01 15.2123H141.914Z" fill="#001E4A"/>
</g>
<g id="g68">
<path id="path70" d="M156.221 9.51588C156.68 9.51588 156.661 8.97341 156.661 8.83765C156.661 7.83012 156.301 7.15189 155.941 6.74518C155.182 5.87342 154.143 5.85378 153.203 5.85378C152.145 5.85378 151.005 5.89277 150.266 7.09383C149.846 7.77206 149.786 8.50835 149.766 9.51588H156.221ZM152.304 15.2124C151.445 15.2124 150.326 14.9992 149.506 13.9527C148.688 12.9258 148.647 11.6277 148.647 10.1167C148.647 8.68282 148.727 6.93872 150.066 5.85378C151.025 5.07907 152.324 4.94331 153.383 4.94331C154.123 4.94331 155.222 5.04007 156.081 5.52477C156.501 5.77637 157.78 6.62906 157.78 8.77959C157.78 9.07018 157.759 9.76776 157.34 10.1167C157.02 10.3876 156.52 10.4266 156.221 10.4266H149.766C149.746 11.0272 149.786 11.9766 149.946 12.5191C150.186 13.3524 150.905 14.3016 152.304 14.3016H157.5V15.2124H152.304Z" fill="#001E4A"/>
</g>
<g id="g72">
<path id="path74" d="M159.377 8.46965C159.377 7.42341 159.517 6.51266 160.316 5.77637C160.756 5.36965 161.495 4.94331 162.914 4.94331H163.633V5.85406H162.994C162.414 5.85406 161.535 5.91241 160.956 6.57072C160.516 7.09412 160.416 7.86912 160.416 8.70217V15.2124H159.377V8.46965Z" fill="#001E4A"/>
</g>
</g>
</g>
</svg>
